<?xml version="1.0" standalone="no"?>
<!DOCTYPE svg PUBLIC "-//W3C//DTD SVG 20010904//EN"
 "http://www.w3.org/TR/2001/REC-SVG-20010904/DTD/svg10.dtd">
<svg version="1.0" xmlns="http://www.w3.org/2000/svg"
 width="116.000000pt" height="116.000000pt" viewBox="0 0 116.000000 116.000000"
 preserveAspectRatio="xMidYMid meet">
<metadata>
Created by potrace 1.11, written by Peter Selinger 2001-2013
</metadata>
<g transform="translate(0.000000,116.000000) scale(0.100000,-0.100000)"
fill="#000000" stroke="none">
<path d="M0 580 l0 -580 580 0 580 0 0 580 0 580 -580 0 -580 0 0 -580z m127
71 c29 -18 93 -99 93 -118 0 -5 14 -25 31 -46 43 -52 77 -51 109 4 95 157 121
179 215 179 80 0 117 -24 170 -112 52 -86 73 -108 102 -108 23 0 32 10 106
125 39 61 90 97 132 93 27 -3 30 -7 33 -39 3 -32 -1 -39 -31 -57 -22 -13 -51
-48 -81 -98 -59 -98 -103 -134 -163 -134 -59 0 -103 34 -153 120 -59 102 -70
112 -115 112 -33 0 -45 -6 -67 -33 -16 -18 -28 -37 -28 -41 0 -18 -70 -115
-98 -135 -76 -56 -167 -15 -232 101 -43 78 -56 93 -92 112 -24 12 -28 21 -28
54 0 38 1 40 33 40 17 0 46 -9 64 -19z"/>
</g>
</svg>
